<?xml version="1.0" encoding="utf-8"?>
<!-- Generator: Adobe Illustrator 23.1.1, SVG Export Plug-In . SVG Version: 6.00 Build 0)  -->
<svg version="1.1" xmlns="http://www.w3.org/2000/svg" xmlns:xlink="http://www.w3.org/1999/xlink" x="0px" y="0px"
	 viewBox="0 0 294.1 294.1" style="enable-background:new 0 0 294.1 294.1;" xml:space="preserve">
<style type="text/css">
	.st0{fill:url(#path63_2_);}
	.st1{fill:url(#path65_2_);}
	.st2{fill:url(#path67_2_);}
	.st3{opacity:0.18;}
	.st4{fill:#FFFFFF;}
</style>
<g id="Contours" xmlns:inkscape="http://www.inkscape.org/namespaces/inkscape" xmlns:sodipodi="http://sodipodi.sourceforge.net/DTD/sodipodi-0.dtd" xmlns:svg="http://www.w3.org/2000/svg">
	
		<sodipodi:namedview  bordercolor="#000000" borderopacity="0.25" id="namedview70" inkscape:current-layer="Contours" inkscape:cx="260.83517" inkscape:cy="150.24458" inkscape:deskcolor="#d1d1d1" inkscape:pagecheckerboard="0" inkscape:pageopacity="0.0" inkscape:showpageshadow="2" inkscape:window-height="987" inkscape:window-maximized="1" inkscape:window-width="1680" inkscape:window-x="0" inkscape:window-y="0" inkscape:zoom="2.2696326" pagecolor="#ffffff" showgrid="false">
		</sodipodi:namedview>
	
		<linearGradient id="path63_2_" gradientUnits="userSpaceOnUse" x1="316.6321" y1="218.7838" x2="542.8974" y2="-4.0651" gradientTransform="matrix(1 0 0 -1 -278.4643 257.9734)">
		<stop  offset="0" style="stop-color:#008080"/>
		<stop  offset="1" style="stop-color:#800080"/>
	</linearGradient>
	<path id="path63" class="st0" d="M244,44.7c0,0.3-0.1,0.7,0,1c1.9,8.3,1.9,13.5-3,22.7c-2.6,4.9-4.1,10.5-7.4,14.9
		c-3.6,4.7-8.7,8.3-13.1,12.5c-1.2,1.1-2.3,2.3-3.5,3.5c1.8,0.5,3.7,1.7,5.3,1.4c8.5-1.6,16.4-4.8,23.1-10.7c3.1-2.7,6.5-5.1,10.1-7
		c4.1-2.2,4.3-5.9,3.4-9c-1.9-6.6-2.6-13-2-19.9c0.6-7.2,0.6-14.5,0-21.6c-0.3-3.4-2.2-6.7-3.9-9.8c-2.2-4,0.2-5.7,3.1-7.4
		c0.7-0.4,1.3-1,2-1.6c-0.8-0.3-1.6-0.6-2.4-0.9c-0.4-0.1-0.9-0.2-1.4-0.3c0.3-0.5,0.6-1.1,1-1.4c4.3-3.2,15.9-2.1,19.3,1.8
		c0.3,0.3,0.3,0.9,0.4,1.3c-0.7,0-1.4,0.3-2,0.1c-2.5-0.8-5-1.7-7.5-2.4c-0.4-0.1-1.1,0.4-1.5,0.7c-0.1,0.1,0.5,1.2,0.5,1.2
		c4.6-1.7,5.4,3.6,8.5,4.6c3.8,1.3,6.2,3.5,4,7.9c-0.1,0.1-0.1,0.4,0,0.5c5.6,11.7,1.4,24.4,3.7,36.6c1.1,5.8-1,12.1-0.6,18.2
		c0.5,7.4,2.1,14.8,3.2,22.1c0.1,0.4,0.6,0.8,0.6,1.2c-0.2,6.4-0.9,12.9-0.7,19.3c0.2,5.5,1.3,11,2.1,16.5c0.2,1.4,0.7,2.8,0.6,4.2
		c-0.4,9.2,0.8,18,4.8,26.6c1.6,3.4,0.2,8.1,0.3,12.2c0,1.5,0.3,3.2,0.9,4.6c2.9,7.1,2.5,14.5,1.9,21.8c-0.4,5.2-3.3,10.5-2.5,15.4
		c1,6.1-2,10.9-2.4,16.4c-0.9,10.8-6.8,18.6-14.9,25.9c-7.1,6.3-15.7,7.3-23.8,10c-5,1.6-10.6,1-15.8,2.3
		c-10.2,2.6-20.6,1.7-30.9,1.8c-5.9,0.1-11.8-1-17.8-0.8c-8.4,0.3-16.8,1.4-25.2,1.8c-2.8,0.1-5.6-1-8.5-1.1
		c-5.3-0.1-10.5,0.2-15.8,0.2c-4.6,0-9.1,0-13.7,0c-11.5,0.1-23.1-0.3-34.6,0.4c-8.4,0.5-16.6,2.4-25,3.6c-3.5,0.5-7.1,1.4-10.6,0.9
		c-10-1.3-20.1-2.8-29.9-5c-6.5-1.5-11.5-12.1-10.4-18.9c0.5-3-0.4-6.2-0.4-9.4c-0.1-7.4,0.4-14.8-0.2-22.2
		c-0.6-7.5-2.4-15-3.4-22.5c-0.7-4.7-0.8-9.4-1.5-14.1c-0.5-3.6-1.6-7.1-1.9-10.7c-0.3-4.1,0-8.2-0.1-12.3
		c-0.2-5.5-0.9-11.1-0.9-16.6c0-6,0.8-12.1,0.9-18.1c0-4-1-8.1-0.8-12.1c0.3-7.6-0.3-14.9-1.8-22.4C1.1,96.7,2.7,90.6,3,84.8
		c0.4-6.7,1-13.4,0.9-20.1c-0.1-4.9-0.7-9.9-2.1-14.6C-1,41,0.6,31.8,1.2,22.8c0.3-4.2,4.6-6.3,8.5-6.9c3.2-0.5,7.2-0.3,9.9,1.2
		c4.4,2.5,7.7,0.6,11.4-0.7c0.9-0.3,1.8-0.6,2.7-0.6c1.1,0.1,2.2,0.6,3.4,0.9c-0.9,0.4-1.9,0.6-2.7,1.1c-0.8,0.4-1.5,1-2.2,1.5
		c0.6,0.5,1.4,1.5,1.9,1.4c6.1-1.8,11.4,3,17.4,2.1c4.9-0.7,10.1-2.3,14.8-1.4c9.2,1.7,18.6-2,27.7,2.2c4,1.8,9,1.4,13.6,2.2
		c2.3,0.4,6.3-0.4,3.8,4.4c-0.2,0.4,0.4,1.5,0.9,2c0.2,0.2,1.3-0.2,1.7-0.7c1.9-2.5,3.6-1.2,4.9,0.4c4.9,6.1,9.7,12.3,14.5,18.4
		c3.4,4.4,7.3,8.5,10,13.3c2.1,3.6,6,6.9,4,12c-0.1,0.4,0.6,1.1,0.9,1.6c1.9,2.9,3,5.4,2.4,9.4c-0.6,3.7,1.7,7.8,2.7,11.7
		c0.5,2,1.1,4.1,0.9,6.1c-0.3,2.5-0.3,4.6,1,6.8c0.7,1.2,0.4,3.1,0.1,4.6c-1.2,6.3-1.9,12.8-4.1,18.8c-4.3,11.7-10.6,22-24.1,25.1
		c-8.7,2-17.3,4.1-26,6c-7.9,1.7-15.8,2.7-23.6,4.5c-5.8,1.4-11.8,3.1-17.1,5.8c-1.9,1-2.4,5.2-3.2,8c-0.6,2.1-0.9,4.3-0.8,6.5
		c0.2,15.4,0.9,30.8,4,46c1.6,7.8-5.6,17.1-12.8,17.3c-5.5,0.1-7.8-3.4-8-7.5c-0.3-6.7-4.2-13.5-0.3-20.4c0.4-0.8-0.1-2.7-0.9-3.5
		c-2.3-2.5-1.4-5.1-1.3-8c0.3-8.4,0-16.9,0.1-25.3c0-3,1-5.9,1.1-8.8c0.2-8.4-0.1-16.8,0.1-25.2c0.1-6.7,1.3-13.4,0.8-20.1
		c-0.8-10.7-2.6-21.2-3.8-31.9c-0.2-1.8,0.9-3.7,0.9-5.6c-0.2-5.9-0.7-11.8-0.9-17.8c-0.2-5.1,0.8-10.4-0.2-15.3
		C33,55.8,30.3,47.3,27.4,39c-0.2-0.7-4.1-0.4-6.3-0.2c-0.5,0-1.2,1.7-1.1,2.5C21,51.7,22,62.1,23,72.6c0.1,1.3,0,2.7,0,4
		c0.3,6.2,0.7,12.4,1,18.6c0.4,10.2-0.1,20.6,1.3,30.7c0.7,5.4-0.2,10.3-0.1,15.4c0.1,9.1,1.3,18.1,1.8,27.2
		c0.3,5.6-0.4,11.3,0.2,16.8c0.9,9.3,2.8,18.6,3.8,27.9c0.6,5.8,0,11.8,0.2,17.6c0.2,6.2,0.3,12.5,1.3,18.6
		c1.5,8.7,6.8,11.3,16,12.5c12.4,1.6,23.7-2.9,35.6-4c9.4-0.8,18.6-3.4,28.5-1.7c12.9,2.1,26.1,2,39.2,2.3c4,0.1,8.1-1.9,12.2-1.8
		c15.4,0.4,30.8,1.4,46.2,1.8c5.5,0.2,11.1-0.2,16.6-1c8-1.3,16-3.1,23.9-4.9c12.3-2.9,17.4-12.4,19.3-23.5
		c2.5-14.4,1.4-28.9-1.7-43.3c-2-9.3-2.4-18.9-3.1-28.4c-0.9-11.2-0.8-22.5-2.3-33.6c-0.7-5.3-0.6-10.5-0.8-15.8
		c0-0.8,0.3-1.9-0.1-2.5c-1.1-1.4-2.4-2.6-3.7-3.8c-0.7,0.9-1.9,1.6-2.2,2.7c-3.2,10.7-12.9,12.9-21.6,15.1
		c-7.7,1.9-16.1,2.4-24.1,2c-8.4-0.4-15.4-5-21.4-11c-9.6-9.6-7.4-20.9-5-32.3c1.2-5.5,1.5-11.3,3.1-16.7c1.6-5.4,4.2-10.6,6.5-15.8
		c1.2-2.8,2.3-5.9,4.3-8.2c9.7-11.4,22.3-13,35.9-9.4c6.3,1.7,12.3,10.8,12.8,15.8c0,0.2-1.4,0.5-2.3,0.6c-1.2-1.8-2.2-3.2-3.2-5
		c-2.3-2.5-4.6-4.9-6.9-7.1c-0.4-0.4-1.3-0.2-2-0.2c0.4,0.5,0.6,1.2,1.1,1.6c2.6,2,5.2,4,7.8,6.3C242,41.7,243,43.2,244,44.7
		 M102,48.2c-7-5.5-15.5-5.9-23.8-6.3c-5-0.3-10.2,0.7-15.1,2c-2.3,0.6-4.8,2.8-5.9,4.9c-1.7,3.2-2.4,7-3.1,10.7
		c-0.9,4.5-2.7,9.4-1.7,13.6c1.1,4.7,2.2,9,1.8,13.9c-0.4,5.5,0.6,11.2,0.8,16.7c0.1,3.2-0.5,6.7-0.4,9.7c0.3,7,3.2,13.8,4.1,20.7
		c0.6,4.3,1,8.9-0.6,13.4c-0.4,1,0.4,3,1.2,3.8c0.7,0.7,2.5,1,3.6,0.7c7.1-1.7,14.1-3.7,21.3-5.4c9.5-2.1,19.5-0.9,28.6-5.8
		c6.3-3.4,13-6.5,16.6-12.5c5.1-8.4,7.1-18.4,5.2-27.8c-1.9-9.5-6-18.8-10.2-27.7C119.7,62.8,112.2,54.6,102,48.2 M227,51.2
		c-3.4-4.2-8.4-3.6-11.3-1.3c-7.2,5.8-9.7,14.7-11.6,23.5c-0.2,0.9,1.4,3.2,1.9,3.1c2.6-0.3,5.8-0.5,7.5-2.1
		C220,68.3,226.2,61.8,227,51.2 M4,23.2c0.8-0.4,1.6-0.8,2.3-1.3c0.2-0.1,0-0.8,0-1.2C5.5,21.2,4.7,21.7,4,23.2z"/>
	
		<linearGradient id="path65_2_" gradientUnits="userSpaceOnUse" x1="336.2078" y1="238.6595" x2="562.473" y2="15.8106" gradientTransform="matrix(1 0 0 -1 -278.4643 257.9734)">
		<stop  offset="0" style="stop-color:#008080"/>
		<stop  offset="1" style="stop-color:#800080"/>
	</linearGradient>
	<path id="path65" class="st1" d="M217.7,162.4c-6.3,3.8-6.2,5.4-1.9,8.6c7.4,5.4,14.9,10.6,22.5,15.6c5.8,3.8,10,8.7,13.1,14.9
		c1.8,3.6,4.3,7.1,7.2,9.9c0.8,0.8,3.4-0.4,3.4,2.7c0,1.9,1.7,3.8,1.8,5.7c0.1,5.2-8.8,11.6-13.7,9.5c-5-2.2-10-4.7-14.1-8.1
		c-5.8-4.8-10.4-10.8-14.5-17.3c-3.3-5.3-9.5-8.9-14.7-13c-2.4-1.9-5.2-3.4-8.1-4.5c-4.6-1.8-5.9,0-6.1,4.9
		c-0.2,6-1.5,12.1,1.2,17.7c3.3,6.6,1.4,12.9-0.1,19.4c-1.4,6.1-6.6,10-12.9,9.5c-4.1-0.4-7.8-6.2-8.3-11.6
		c-0.9-10.9-2.5-21.7-3.5-32.5c-0.5-5.1,0.1-10.4-0.5-15.5c-1.6-13.8,0.4-27.9-3.7-41.6c-2-6.5-1.4-13.7-2.3-20.6
		c-1.9-14-3.9-28-6-42c-0.9-6.3-1.6-12.6-3.1-18.7c-1.1-4.5-3.2-8.6-4.9-13c-2.3-5.9-0.9-11.4,4.1-14.7c2.8-1.8,7.5-2.3,10.9-1.4
		c2.4,0.6,4.1,4.4,6,6.9c0.2,0.3-0.1,0.9-0.1,1.4c-0.5-0.2-1-0.4-1.4-0.7c-0.6-0.5-1.1-1.4-1.8-1.7c-0.9-0.3-2.1-0.2-3.1-0.3
		c0.2,0.9,0.2,2,0.7,2.7c2.6,4.4,6.4,8.5,7.8,13.2c1.8,6.3,3.8,12.5,4.3,19.4c0.7,9.4-0.2,18.7,0.6,28c0.5,6.2,1.2,12.1,4.9,17.5
		c1.2,1.7,0.6,4.5,1.2,6.7c0.8,3.3,1.8,6.6,2.8,9.9c0.4,1.3,1.1,2.7,1.1,4c0.1,5.2-0.1,10.5,0.2,15.7c0.1,1.7,1.1,3.9,2.5,4.8
		c0.9,0.6,3.2-0.6,4.6-1.5c7.1-4.3,14-8.8,21-13.3c2.7-1.7,5.2-3.5,7.7-5.4c4.7-3.6,9.6-6.1,15.8-4.6c2,0.5,4.5-0.9,6.3-0.2
		c5.1,1.9,2.3,7.2,3.6,10.9c0.5,1.4-2.9,4.3-4.7,6.4c-2.2,2.5-4.2,5.3-7,6.9C230.9,156.1,224.3,159,217.7,162.4 M245.5,199.7
		c-0.9-1-1.8-2-2.8-3c0,0-0.5,0.3-0.7,0.5C242.8,198,243.7,198.8,245.5,199.7z"/>
	
		<linearGradient id="path67_2_" gradientUnits="userSpaceOnUse" x1="264.9947" y1="166.3548" x2="491.26" y2="-56.4941" gradientTransform="matrix(1 0 0 -1 -278.4643 257.9734)">
		<stop  offset="0" style="stop-color:#008080"/>
		<stop  offset="1" style="stop-color:#800080"/>
	</linearGradient>
	<path id="path67" class="st2" d="M131.2,183.4c7.4,5.4,8.9,14.1,11.9,21.4c3,7.2,2,15.9-0.6,23.1c-1.7,4.9-6.6,9-10.8,12.6
		c-10.8,9.2-23.4,6.7-35.8,4.6c-10.2-1.7-15-8.9-18.1-17.9c-1.1-3.2-3.1-6.1-4-9.3c-0.6-1.9-0.1-4.1,0.1-6.2
		c0.6-6.1,0.1-12.6,2.3-18c2.9-7.1,8-13.4,12.2-19.9c0.3-0.5,2.2-0.8,2.3-0.7c3.2,6.1,6.7,0.4,8.5-0.6c6.5-3.9,20-1.1,24.8,4.2
		C126.1,179,128.7,181,131.2,183.4 M118.5,202.7c-4.4-3.1-8.7-6.3-13.2-9.1c-1.4-0.8-4.7-1-5.1-0.3c-2.1,3.4-4.2,7-4.9,10.9
		c-0.7,3.3,0.3,7,0.8,10.5c1.7,9.9,13.5,12.2,20.1,8.3C122.9,219.1,126,212,118.5,202.7z"/>
</g>
<g id="Contours__x28_копия_x29_" inkscape:version="1.2 (dc2aedaf03, 2022-05-15)" sodipodi:docname="logocopy.svg" xmlns:inkscape="http://www.inkscape.org/namespaces/inkscape" xmlns:sodipodi="http://sodipodi.sourceforge.net/DTD/sodipodi-0.dtd" xmlns:svg="http://www.w3.org/2000/svg" class="st3">
	
		<sodipodi:namedview  bordercolor="#000000" borderopacity="0.25" id="namedview70" inkscape:current-layer="Contours" inkscape:cx="260.83517" inkscape:cy="150.24458" inkscape:deskcolor="#d1d1d1" inkscape:pagecheckerboard="0" inkscape:pageopacity="0.0" inkscape:showpageshadow="2" inkscape:window-height="987" inkscape:window-maximized="1" inkscape:window-width="1680" inkscape:window-x="0" inkscape:window-y="0" inkscape:zoom="2.2696326" pagecolor="#ffffff" showgrid="false">
		</sodipodi:namedview>
	<path id="path63_1_" class="st4" d="M244,44.7c0,0.3-0.1,0.7,0,1c1.9,8.3,1.9,13.5-3,22.7c-2.6,4.9-4.1,10.5-7.4,14.9
		c-3.6,4.7-8.7,8.3-13.1,12.5c-1.2,1.1-2.3,2.3-3.5,3.5c1.8,0.5,3.7,1.7,5.3,1.4c8.5-1.6,16.4-4.8,23.1-10.7c3.1-2.7,6.5-5.1,10.1-7
		c4.1-2.2,4.3-5.9,3.4-9c-1.9-6.6-2.6-13-2-19.9c0.6-7.2,0.6-14.5,0-21.6c-0.3-3.4-2.2-6.7-3.9-9.8c-2.2-4,0.2-5.7,3.1-7.4
		c0.7-0.4,1.3-1,2-1.6c-0.8-0.3-1.6-0.6-2.4-0.9c-0.4-0.1-0.9-0.2-1.4-0.3c0.3-0.5,0.6-1.1,1-1.4c4.3-3.2,15.9-2.1,19.3,1.8
		c0.3,0.3,0.3,0.9,0.4,1.3c-0.7,0-1.4,0.3-2,0.1c-2.5-0.8-5-1.7-7.5-2.4c-0.4-0.1-1.1,0.4-1.5,0.7c-0.1,0.1,0.5,1.2,0.5,1.2
		c4.6-1.7,5.4,3.6,8.5,4.6c3.8,1.3,6.2,3.5,4,7.9c-0.1,0.1-0.1,0.4,0,0.5c5.6,11.7,1.4,24.4,3.7,36.6c1.1,5.8-1,12.1-0.6,18.2
		c0.5,7.4,2.1,14.8,3.2,22.1c0.1,0.4,0.6,0.8,0.6,1.2c-0.2,6.4-0.9,12.9-0.7,19.3c0.2,5.5,1.3,11,2.1,16.5c0.2,1.4,0.7,2.8,0.6,4.2
		c-0.4,9.2,0.8,18,4.8,26.6c1.6,3.4,0.2,8.1,0.3,12.2c0,1.5,0.3,3.2,0.9,4.6c2.9,7.1,2.5,14.5,1.9,21.8c-0.4,5.2-3.3,10.5-2.5,15.4
		c1,6.1-2,10.9-2.4,16.4c-0.9,10.8-6.8,18.6-14.9,25.9c-7.1,6.3-15.7,7.3-23.8,10c-5,1.6-10.6,1-15.8,2.3
		c-10.2,2.6-20.6,1.7-30.9,1.8c-5.9,0.1-11.8-1-17.8-0.8c-8.4,0.3-16.8,1.4-25.2,1.8c-2.8,0.1-5.6-1-8.5-1.1
		c-5.3-0.1-10.5,0.2-15.8,0.2c-4.6,0-9.1,0-13.7,0c-11.5,0.1-23.1-0.3-34.6,0.4c-8.4,0.5-16.6,2.4-25,3.6c-3.5,0.5-7.1,1.4-10.6,0.9
		c-10-1.3-20.1-2.8-29.9-5c-6.5-1.5-11.5-12.1-10.4-18.9c0.5-3-0.4-6.2-0.4-9.4c-0.1-7.4,0.4-14.8-0.2-22.2
		c-0.6-7.5-2.4-15-3.4-22.5c-0.7-4.7-0.8-9.4-1.5-14.1c-0.5-3.6-1.6-7.1-1.9-10.7c-0.3-4.1,0-8.2-0.1-12.3
		c-0.2-5.5-0.9-11.1-0.9-16.6c0-6,0.8-12.1,0.9-18.1c0-4-1-8.1-0.8-12.1c0.3-7.6-0.3-14.9-1.8-22.4C1.1,96.7,2.7,90.6,3,84.8
		c0.4-6.7,1-13.4,0.9-20.1c-0.1-4.9-0.7-9.9-2.1-14.6C-1,41,0.6,31.8,1.2,22.8c0.3-4.2,4.6-6.3,8.5-6.9c3.2-0.5,7.2-0.3,9.9,1.2
		c4.4,2.5,7.7,0.6,11.4-0.7c0.9-0.3,1.8-0.6,2.7-0.6c1.1,0.1,2.2,0.6,3.4,0.9c-0.9,0.4-1.9,0.6-2.7,1.1c-0.8,0.4-1.5,1-2.2,1.5
		c0.6,0.5,1.4,1.5,1.9,1.4c6.1-1.8,11.4,3,17.4,2.1c4.9-0.7,10.1-2.3,14.8-1.4c9.2,1.7,18.6-2,27.7,2.2c4,1.8,9,1.4,13.6,2.2
		c2.3,0.4,6.3-0.4,3.8,4.4c-0.2,0.4,0.4,1.5,0.9,2c0.2,0.2,1.3-0.2,1.7-0.7c1.9-2.5,3.6-1.2,4.9,0.4c4.9,6.1,9.7,12.3,14.5,18.4
		c3.4,4.4,7.3,8.5,10,13.3c2.1,3.6,6,6.9,4,12c-0.1,0.4,0.6,1.1,0.9,1.6c1.9,2.9,3,5.4,2.4,9.4c-0.6,3.7,1.7,7.8,2.7,11.7
		c0.5,2,1.1,4.1,0.9,6.1c-0.3,2.5-0.3,4.6,1,6.8c0.7,1.2,0.4,3.1,0.1,4.6c-1.2,6.3-1.9,12.8-4.1,18.8c-4.3,11.7-10.6,22-24.1,25.1
		c-8.7,2-17.3,4.1-26,6c-7.9,1.7-15.8,2.7-23.6,4.5c-5.8,1.4-11.8,3.1-17.1,5.8c-1.9,1-2.4,5.2-3.2,8c-0.6,2.1-0.9,4.3-0.8,6.5
		c0.2,15.4,0.9,30.8,4,46c1.6,7.8-5.6,17.1-12.8,17.3c-5.5,0.1-7.8-3.4-8-7.5c-0.3-6.7-4.2-13.5-0.3-20.4c0.4-0.8-0.1-2.7-0.9-3.5
		c-2.3-2.5-1.4-5.1-1.3-8c0.3-8.4,0-16.9,0.1-25.3c0-3,1-5.9,1.1-8.8c0.2-8.4-0.1-16.8,0.1-25.2c0.1-6.7,1.3-13.4,0.8-20.1
		c-0.8-10.7-2.6-21.2-3.8-31.9c-0.2-1.8,0.9-3.7,0.9-5.6c-0.2-5.9-0.7-11.8-0.9-17.8c-0.2-5.1,0.8-10.4-0.2-15.3
		C33,55.8,30.3,47.3,27.4,39c-0.2-0.7-4.1-0.4-6.3-0.2c-0.5,0-1.2,1.7-1.1,2.5C21,51.7,22,62.1,23,72.6c0.1,1.3,0,2.7,0,4
		c0.3,6.2,0.7,12.4,1,18.6c0.4,10.2-0.1,20.6,1.3,30.7c0.7,5.4-0.2,10.3-0.1,15.4c0.1,9.1,1.3,18.1,1.8,27.2
		c0.3,5.6-0.4,11.3,0.2,16.8c0.9,9.3,2.8,18.6,3.8,27.9c0.6,5.8,0,11.8,0.2,17.6c0.2,6.2,0.3,12.5,1.3,18.6
		c1.5,8.7,6.8,11.3,16,12.5c12.4,1.6,23.7-2.9,35.6-4c9.4-0.8,18.6-3.4,28.5-1.7c12.9,2.1,26.1,2,39.2,2.3c4,0.1,8.1-1.9,12.2-1.8
		c15.4,0.4,30.8,1.4,46.2,1.8c5.5,0.2,11.1-0.2,16.6-1c8-1.3,16-3.1,23.9-4.9c12.3-2.9,17.4-12.4,19.3-23.5
		c2.5-14.4,1.4-28.9-1.7-43.3c-2-9.3-2.4-18.9-3.1-28.4c-0.9-11.2-0.8-22.5-2.3-33.6c-0.7-5.3-0.6-10.5-0.8-15.8
		c0-0.8,0.3-1.9-0.1-2.5c-1.1-1.4-2.4-2.6-3.7-3.8c-0.7,0.9-1.9,1.6-2.2,2.7c-3.2,10.7-12.9,12.9-21.6,15.1
		c-7.7,1.9-16.1,2.4-24.1,2c-8.4-0.4-15.4-5-21.4-11c-9.6-9.6-7.4-20.9-5-32.3c1.2-5.5,1.5-11.3,3.1-16.7c1.6-5.4,4.2-10.6,6.5-15.8
		c1.2-2.8,2.3-5.9,4.3-8.2c9.7-11.4,22.3-13,35.9-9.4c6.3,1.7,12.3,10.8,12.8,15.8c0,0.2-1.4,0.5-2.3,0.6c-1.2-1.8-2.2-3.2-3.2-5
		c-2.3-2.5-4.6-4.9-6.9-7.1c-0.4-0.4-1.3-0.2-2-0.2c0.4,0.5,0.6,1.2,1.1,1.6c2.6,2,5.2,4,7.8,6.3C242,41.7,243,43.2,244,44.7
		 M102,48.2c-7-5.5-15.5-5.9-23.8-6.3c-5-0.3-10.2,0.7-15.1,2c-2.3,0.6-4.8,2.8-5.9,4.9c-1.7,3.2-2.4,7-3.1,10.7
		c-0.9,4.5-2.7,9.4-1.7,13.6c1.1,4.7,2.2,9,1.8,13.9c-0.4,5.5,0.6,11.2,0.8,16.7c0.1,3.2-0.5,6.7-0.4,9.7c0.3,7,3.2,13.8,4.1,20.7
		c0.6,4.3,1,8.9-0.6,13.4c-0.4,1,0.4,3,1.2,3.8c0.7,0.7,2.5,1,3.6,0.7c7.1-1.7,14.1-3.7,21.3-5.4c9.5-2.1,19.5-0.9,28.6-5.8
		c6.3-3.4,13-6.5,16.6-12.5c5.1-8.4,7.1-18.4,5.2-27.8c-1.9-9.5-6-18.8-10.2-27.7C119.7,62.8,112.2,54.6,102,48.2 M227,51.2
		c-3.4-4.2-8.4-3.6-11.3-1.3c-7.2,5.8-9.7,14.7-11.6,23.5c-0.2,0.9,1.4,3.2,1.9,3.1c2.6-0.3,5.8-0.5,7.5-2.1
		C220,68.3,226.2,61.8,227,51.2 M4,23.2c0.8-0.4,1.6-0.8,2.3-1.3c0.2-0.1,0-0.8,0-1.2C5.5,21.2,4.7,21.7,4,23.2z"/>
	<path id="path65_1_" class="st4" d="M217.7,162.4c-6.3,3.8-6.2,5.4-1.9,8.6c7.4,5.4,14.9,10.6,22.5,15.6c5.8,3.8,10,8.7,13.1,14.9
		c1.8,3.6,4.3,7.1,7.2,9.9c0.8,0.8,3.4-0.4,3.4,2.7c0,1.9,1.7,3.8,1.8,5.7c0.1,5.2-8.8,11.6-13.7,9.5c-5-2.2-10-4.7-14.1-8.1
		c-5.8-4.8-10.4-10.8-14.5-17.3c-3.3-5.3-9.5-8.9-14.7-13c-2.4-1.9-5.2-3.4-8.1-4.5c-4.6-1.8-5.9,0-6.1,4.9
		c-0.2,6-1.5,12.1,1.2,17.7c3.3,6.6,1.4,12.9-0.1,19.4c-1.4,6.1-6.6,10-12.9,9.5c-4.1-0.4-7.8-6.2-8.3-11.6
		c-0.9-10.9-2.5-21.7-3.5-32.5c-0.5-5.1,0.1-10.4-0.5-15.5c-1.6-13.8,0.4-27.9-3.7-41.6c-2-6.5-1.4-13.7-2.3-20.6
		c-1.9-14-3.9-28-6-42c-0.9-6.3-1.6-12.6-3.1-18.7c-1.1-4.5-3.2-8.6-4.9-13c-2.3-5.9-0.9-11.4,4.1-14.7c2.8-1.8,7.5-2.3,10.9-1.4
		c2.4,0.6,4.1,4.4,6,6.9c0.2,0.3-0.1,0.9-0.1,1.4c-0.5-0.2-1-0.4-1.4-0.7c-0.6-0.5-1.1-1.4-1.8-1.7c-0.9-0.3-2.1-0.2-3.1-0.3
		c0.2,0.9,0.2,2,0.7,2.7c2.6,4.4,6.4,8.5,7.8,13.2c1.8,6.3,3.8,12.5,4.3,19.4c0.7,9.4-0.2,18.7,0.6,28c0.5,6.2,1.2,12.1,4.9,17.5
		c1.2,1.7,0.6,4.5,1.2,6.7c0.8,3.3,1.8,6.6,2.8,9.9c0.4,1.3,1.1,2.7,1.1,4c0.1,5.2-0.1,10.5,0.2,15.7c0.1,1.7,1.1,3.9,2.5,4.8
		c0.9,0.6,3.2-0.6,4.6-1.5c7.1-4.3,14-8.8,21-13.3c2.7-1.7,5.2-3.5,7.7-5.4c4.7-3.6,9.6-6.1,15.8-4.6c2,0.5,4.5-0.9,6.3-0.2
		c5.1,1.9,2.3,7.2,3.6,10.9c0.5,1.4-2.9,4.3-4.7,6.4c-2.2,2.5-4.2,5.3-7,6.9C230.9,156.1,224.3,159,217.7,162.4 M245.5,199.7
		c-0.9-1-1.8-2-2.8-3c0,0-0.5,0.3-0.7,0.5C242.8,198,243.7,198.8,245.5,199.7z"/>
	<path id="path67_1_" class="st4" d="M131.2,183.4c7.4,5.4,8.9,14.1,11.9,21.4c3,7.2,2,15.9-0.6,23.1c-1.7,4.9-6.6,9-10.8,12.6
		c-10.8,9.2-23.4,6.7-35.8,4.6c-10.2-1.7-15-8.9-18.1-17.9c-1.1-3.2-3.1-6.1-4-9.3c-0.6-1.9-0.1-4.1,0.1-6.2
		c0.6-6.1,0.1-12.6,2.3-18c2.9-7.1,8-13.4,12.2-19.9c0.3-0.5,2.2-0.8,2.3-0.7c3.2,6.1,6.7,0.4,8.5-0.6c6.5-3.9,20-1.1,24.8,4.2
		C126.1,179,128.7,181,131.2,183.4 M118.5,202.7c-4.4-3.1-8.7-6.3-13.2-9.1c-1.4-0.8-4.7-1-5.1-0.3c-2.1,3.4-4.2,7-4.9,10.9
		c-0.7,3.3,0.3,7,0.8,10.5c1.7,9.9,13.5,12.2,20.1,8.3C122.9,219.1,126,212,118.5,202.7z"/>
</g>
<g id="Слой_2">
</g>
</svg>
