<?xml version="1.0" encoding="utf-8"?><!DOCTYPE svg PUBLIC "-//W3C//DTD SVG 1.1//EN" "http://www.w3.org/Graphics/SVG/1.1/DTD/svg11.dtd"><svg version="1.1" id="Contours" xmlns="http://www.w3.org/2000/svg" xmlns:xlink="http://www.w3.org/1999/xlink" x="0px" y="0px" width="294.104340px" height="294.104340px" viewBox="0.000000 0.000000 294.104340 277.569672" enable-background="new 0 0 294.104340 294.104340" xml:space="preserve" stroke="black" fill="none" stroke-linecap='round' stroke-linejoin='round'><path class="selected"  fill="#ffffff" opacity="1.000000" stroke="none" 
 	d="
M243.787552 35.567828 C243.787552 35.901118 243.724335 36.248862 243.796784 36.565581 C245.693909 44.859103 245.718384 50.042967 240.822983 59.269228 C238.223496 64.168421 236.692948 69.797465 233.399521 74.121989 C229.793656 78.856791 224.702545 82.457659 220.278717 86.574221 C219.077851 87.691668 217.949280 88.886828 216.787552 90.046328 C218.573014 90.553500 220.492569 91.761874 222.121491 91.450396 C230.655320 89.818613 238.511933 86.631800 245.193299 80.768420 C248.257904 78.079035 251.667923 75.642123 255.263535 73.736437 C259.324539 71.584101 259.528427 67.884493 258.615250 64.759966 C256.687790 58.165202 256.026352 51.726157 256.643845 44.856375 C257.287827 37.691390 257.198258 30.389697 256.606766 23.215594 C256.329117 19.848011 254.390061 16.494614 252.720536 13.395155 C250.554901 9.374665 252.880326 7.693400 255.813126 6.014245 C256.536240 5.600229 257.132828 4.965252 257.787552 4.431845 C256.978043 4.143837 256.174515 3.837254 255.356674 3.575242 C254.911850 3.432732 254.442826 3.365931 253.984696 3.264985 C254.324601 2.793644 254.573838 2.200254 255.018509 1.869919 C259.309952 -1.318233 270.923508 -0.239027 274.347855 3.662809 C274.627976 3.981976 274.647141 4.530158 274.787552 4.971934 C274.123337 5.006359 273.403519 5.224541 272.804642 5.043204 C270.294907 4.283262 267.836319 3.352330 265.319596 2.619464 C264.910935 2.500460 264.235855 2.991283 263.831620 3.361486 C263.720932 3.462862 264.283921 4.523279 264.306351 4.515021 C268.919358 2.816903 269.725815 8.106452 272.842362 9.149529 C276.684494 10.435458 279.010849 12.602063 276.796006 17.000748 C276.729080 17.133686 276.730881 17.356774 276.795609 17.492592 C282.377976 29.209910 278.170975 41.936751 280.497422 54.071349 C281.610215 59.875781 279.532914 66.219996 279.933762 72.251063 C280.426590 79.666209 281.990158 87.010897 283.124741 94.380831 C283.190995 94.811236 283.770768 95.202929 283.756089 95.599459 C283.517350 102.040087 282.847641 108.490435 283.051621 114.913928 C283.226578 120.422457 284.378403 125.900759 285.115921 131.390047 C285.305527 132.801226 285.803879 134.213046 285.748368 135.608187 C285.381974 144.818392 286.544724 153.574465 290.508866 162.162463 C292.074326 165.554003 290.698136 170.268282 290.829514 174.374880 C290.878983 175.921923 291.168717 177.550005 291.752030 178.976275 C294.650498 186.063250 294.295487 193.475329 293.678574 200.792208 C293.241013 205.981844 290.335312 211.331637 291.153672 216.166033 C292.185837 222.263506 289.182663 227.075060 288.707169 232.561816 C287.768204 243.396288 281.915573 251.206255 273.852646 258.436083 C266.780350 264.777636 258.172592 265.721575 250.055924 268.389544 C245.092743 270.020953 239.420471 269.376421 234.301834 270.678545 C224.076889 273.279681 213.737091 272.406969 203.434204 272.497942 C197.519318 272.550158 191.584717 271.479449 185.683197 271.668749 C177.281067 271.938311 168.909073 273.057909 160.507386 273.479662 C157.709091 273.620135 154.866013 272.443316 152.031266 272.375353 C146.781067 272.249438 141.522248 272.530444 136.266434 272.578661 C131.707428 272.620501 127.147446 272.546008 122.588188 272.573443 C111.068222 272.642748 99.522393 272.298418 88.037239 272.974444 C79.677155 273.466479 71.404999 275.376055 63.077950 276.541613 C59.571869 277.032366 55.938774 277.893603 52.513634 277.443438 C42.492771 276.126482 32.453141 274.650958 22.605954 272.420458 C16.110592 270.949236 11.131239 260.370379 12.224766 253.500781 C12.706572 250.474047 11.845673 247.254748 11.812577 244.120593 C11.734551 236.731905 12.257630 229.303378 11.657158 221.962985 C11.039713 214.415102 9.276118 206.967059 8.209814 199.447573 C7.547559 194.777407 7.367647 190.039980 6.749153 185.362109 C6.275526 181.779894 5.160096 178.267825 4.865223 174.680590 C4.529340 170.594424 4.912660 166.454699 4.756896 162.346835 C4.547112 156.814303 3.849838 151.289431 3.860616 145.762255 C3.872372 139.733843 4.656195 133.708590 4.716585 127.678057 C4.756885 123.653765 3.710234 119.605715 3.875853 115.598284 C4.188884 108.023936 3.601883 100.697970 2.075764 93.196024 C0.944063 87.632922 2.472513 81.533350 2.782727 75.670992 C3.136908 68.977732 3.807667 62.275240 3.669871 55.590590 C3.569118 50.702921 2.969338 45.660277 1.557719 40.999995 C-1.208557 31.867484 0.442454 22.744246 0.983559 13.676732 C1.235791 9.449976 5.620222 7.344268 9.438761 6.748985 C12.642538 6.249538 16.620123 6.401119 19.314205 7.926377 C23.670594 10.392750 26.977444 8.537411 30.681652 7.196445 C31.556252 6.879830 32.522423 6.555634 33.417710 6.622131 C34.556305 6.706700 35.665615 7.185532 36.787552 7.494383 C35.881222 7.852197 34.935280 8.135429 34.080151 8.589638 C33.288369 9.010205 32.593743 9.613680 31.856335 10.136607 C32.491947 10.613682 33.286049 11.622559 33.739235 11.487502 C39.856079 9.664549 45.112046 14.479598 51.108963 13.603058 C56.023735 12.884690 61.192093 11.326924 65.879753 12.175568 C75.076653 13.840558 84.503075 10.216515 93.616608 14.370993 C97.640808 16.205454 102.654763 15.816046 107.190361 16.603384 C109.491471 17.002837 113.499375 16.242045 110.945908 21.013977 C110.725479 21.425900 111.344117 22.464890 111.825402 22.973969 C111.985680 23.143504 113.155678 22.735142 113.488938 22.302199 C115.390389 19.832022 117.087258 21.127154 118.376778 22.723826 C123.279312 28.794054 128.046082 34.974234 132.842850 41.129477 C136.258148 45.512038 140.111328 49.646292 142.882492 54.407401 C144.959961 57.976664 148.833802 61.355097 146.847657 66.456980 C146.709732 66.811259 147.416657 67.509570 147.755524 68.031794 C149.608185 70.886958 150.730255 73.469088 150.124100 77.412531 C149.559723 81.084109 151.872223 85.173899 152.796112 89.108271 C153.265412 91.106707 153.911988 93.222155 153.674881 95.187777 C153.376786 97.658976 153.403214 99.744929 154.670929 102.022585 C155.332535 103.211291 155.037033 105.120303 154.744110 106.620036 C153.513596 112.920260 152.845307 119.457903 150.633713 125.411822 C146.299118 137.081149 139.993622 147.394274 126.552674 150.560305 C117.891793 152.600375 109.241013 154.697070 100.535416 156.529482 C92.684059 158.182085 84.696373 159.223528 76.897019 161.074648 C71.056282 162.460894 65.141068 164.158343 59.837708 166.855212 C57.899010 167.841052 57.446240 172.056841 56.657681 174.894198 C56.078835 176.976992 55.801117 179.217944 55.828640 181.382815 C56.024803 196.812075 56.731209 212.203158 59.779541 227.393267 C61.341263 235.175463 54.186772 244.493349 46.989422 244.643923 C41.537091 244.757983 39.211468 241.283663 39.024308 237.105944 C38.722218 230.363009 34.808903 223.618121 38.686608 216.736651 C39.131249 215.947588 38.559326 214.030657 37.817768 213.231249 C35.502297 210.735125 36.407696 208.093676 36.517056 205.213763 C36.837460 196.776171 36.500630 188.315813 36.642784 179.868105 C36.692467 176.915804 37.677124 173.979815 37.732453 171.026949 C37.889588 162.640521 37.660343 154.246676 37.827839 145.860659 C37.961628 139.162310 39.116112 132.423296 38.636502 125.787676 C37.866474 115.134058 36.043202 104.559573 34.862892 93.929667 C34.662754 92.127245 35.780735 90.205279 35.727291 88.354784 C35.556229 82.431818 35.009781 76.520007 34.821297 70.597117 C34.658734 65.488657 35.615055 60.200541 34.605011 55.294871 C32.828778 46.667914 30.076599 38.222193 27.241410 29.867438 C26.993309 29.136336 23.096766 29.486712 20.928347 29.690699 C20.472458 29.733588 19.773043 31.377364 19.846999 32.225844 C20.755736 42.651488 21.801018 53.065154 22.770726 63.485659 C22.893723 64.807375 22.730475 66.153277 22.797301 67.483080 C23.108633 73.678614 23.530464 79.869471 23.770346 86.067515 C24.166996 96.316111 23.699786 106.673029 25.093931 116.777712 C25.832409 122.130129 24.899687 127.054491 24.949745 132.159304 C25.038601 141.220919 26.266220 150.265322 26.734019 159.331530 C27.022900 164.930193 26.328610 170.602328 26.890553 176.159060 C27.833432 185.482668 29.713921 194.711932 30.640618 204.036486 C31.219799 209.864245 30.615982 215.799670 30.830658 221.676287 C31.057991 227.899249 31.099114 234.202441 32.171650 240.303561 C33.698456 248.988787 38.999184 251.636401 48.185181 252.796008 C60.567581 254.359057 71.906288 249.880511 83.747719 248.841753 C93.151734 248.016818 102.320603 245.467394 112.247704 247.118349 C125.107346 249.257006 138.381501 249.071673 151.489807 249.446368 C155.524079 249.561663 159.615647 247.583605 163.653336 247.683382 C179.048859 248.063769 194.428879 249.048846 209.823822 249.489123 C215.337616 249.646777 220.945313 249.330157 226.389054 248.466647 C234.426377 247.191729 242.397812 245.412524 250.320816 243.526644 C262.605576 240.602602 267.705612 231.089083 269.623520 220.007021 C272.123398 205.562136 271.048539 191.108935 267.970261 176.659274 C265.995957 167.391879 265.589585 157.763918 264.838974 148.269244 C263.953110 137.064227 264.017990 125.753787 262.542832 114.638750 C261.835953 109.312342 261.899002 104.116839 261.789963 98.851099 C261.772721 98.018237 262.123429 96.930644 261.722550 96.400668 C260.658890 94.994509 259.276963 93.829050 258.021683 92.567828 C257.276993 93.449183 256.154068 94.215548 255.845810 95.229571 C252.598404 105.911494 242.978318 108.122843 234.258652 110.301966 C226.519303 112.236094 218.173752 112.723368 210.167557 112.342150 C201.755921 111.941622 194.761048 107.364230 188.752762 101.324427 C179.164200 91.685557 181.366806 80.447504 183.787262 69.028918 C184.963654 63.479159 185.330521 57.719706 186.918885 52.306044 C188.513047 46.872687 191.095017 41.718005 193.392380 36.506571 C194.636460 33.684466 195.730728 30.607588 197.681397 28.317584 C207.401627 16.906580 219.948273 15.312317 233.604050 18.963910 C239.859604 20.636662 245.878983 29.795924 246.362549 34.747031 C246.382492 34.951132 245.010865 35.291140 244.037552 35.317828 C242.787552 33.567828 241.787552 32.067828 240.787552 30.317828 C238.489594 27.769877 236.232041 25.428477 233.853653 23.217028 C233.460404 22.851384 232.538422 23.054390 231.860779 22.994603 C232.219742 23.519011 232.478516 24.169915 232.954346 24.546748 C235.535828 26.591132 238.170914 28.567831 240.787552 30.817831 C241.787552 32.567831 242.787552 34.067831 243.787552 35.567828 M101.787552 39.067828 C94.777596 33.522742 86.239144 33.202010 77.979729 32.741957 C72.977188 32.463316 67.770966 33.483675 62.871559 34.752085 C60.580612 35.345190 58.057221 37.527724 56.960793 39.667178 C55.297997 42.911791 54.568657 46.703322 53.843170 50.342337 C52.944226 54.851405 51.150620 59.749659 52.133820 63.915659 C53.239888 68.602259 54.307225 72.914881 53.954953 77.846651 C53.559838 83.378153 54.549031 88.998331 54.751175 94.586611 C54.868119 97.819582 54.291016 101.291468 54.400059 104.243685 C54.656845 111.195971 57.576214 118.004946 58.522663 124.993212 C59.110131 129.330904 59.537941 133.942950 57.905514 138.396563 C57.527069 139.429018 58.282372 141.348879 59.154579 142.223803 C59.898842 142.970400 61.662964 143.237978 62.798661 142.968996 C69.906769 141.285387 76.927201 139.224459 84.049385 137.609087 C93.516686 135.461840 103.509285 136.690722 112.650582 131.767382 C118.964279 128.366946 125.631516 125.259295 129.275818 119.246439 C134.338211 110.893801 136.340714 100.886668 134.448990 91.477412 C132.530731 81.936297 128.495377 72.652010 124.269257 63.788294 C119.456047 53.693232 112.010292 45.467986 101.787552 39.067828 M226.787552 42.067828 C223.434052 37.847914 218.399384 38.432723 215.459702 40.799967 C208.233704 46.618845 205.800003 55.484454 203.905320 64.256716 C203.705963 65.179781 205.269944 67.464602 205.794342 67.397097 C208.374390 67.064951 211.588028 66.905718 213.285691 65.310313 C219.775864 59.210947 226.017380 52.731535 226.787552 42.067828 M3.787551 14.067826 C4.556342 13.632369 5.369285 13.254580 6.064165 12.722582 C6.247368 12.582322 6.065874 11.965702 6.051851 11.567828 C5.297084 12.067828 4.542319 12.567828 3.787551 14.067826 z"/><path class="selected"  fill="#ffffff" opacity="1.000000" stroke="none" 
 	d="
M217.537552 153.317828 C211.263260 157.158404 211.378128 158.764971 215.681717 161.888293 C223.076432 167.254961 230.576096 172.489077 238.199860 177.524203 C243.959671 181.328295 248.196656 186.193118 251.265763 192.393801 C253.064011 196.026949 255.528336 199.530169 258.457993 202.275530 C259.280747 203.046542 261.850937 201.869036 261.904892 204.954089 C261.938156 206.855517 263.634629 208.722186 263.688919 210.629931 C263.837479 215.849520 254.902146 222.251208 250.022019 220.126605 C245.070435 217.970904 240.055588 215.415972 235.956665 211.977160 C230.185288 207.135226 225.575287 201.223391 221.453766 194.649844 C218.116577 189.327303 211.939225 185.711199 206.788208 181.633074 C204.386780 179.731844 201.563233 178.189700 198.699250 177.086459 C194.072434 175.304110 192.758789 177.103564 192.624039 181.988207 C192.458405 187.992327 191.100876 194.098818 193.868683 199.708285 C197.133972 206.325991 195.273026 212.623431 193.811981 219.095019 C192.438065 225.180712 187.221024 229.122042 180.959976 228.567828 C176.851364 228.204150 173.180497 222.407732 172.707627 216.941027 C171.768662 206.086276 170.230042 195.284274 169.220490 184.434313 C168.742325 179.295306 169.316330 174.048037 168.709549 168.933352 C167.070908 155.120806 169.121765 141.063830 165.008057 127.347308 C163.057251 120.842577 163.655014 113.607089 162.745499 106.749445 C160.885742 92.727313 158.818940 78.732211 156.773255 64.735362 C155.857727 58.471186 155.140213 52.145121 153.669586 46.006030 C152.603028 41.553812 150.439347 37.365382 148.776703 33.054766 C146.485703 27.115038 147.843033 21.630482 152.904099 18.346526 C155.746460 16.502222 160.430634 16.043868 163.777100 16.914122 C166.211335 17.547154 167.839508 21.357777 169.751908 23.810288 C169.965073 24.083659 169.686432 24.740515 169.635865 25.219523 C169.164505 24.980364 168.633408 24.813651 168.235398 24.485520 C167.595429 23.957903 167.139740 23.054999 166.430451 22.800599 C165.486191 22.461922 164.373474 22.592993 163.333115 22.522265 C163.558594 23.444775 163.578125 24.490307 164.043579 25.269453 C166.683426 29.688372 170.488083 33.734663 171.878327 38.496890 C173.708466 44.766016 175.695938 51.006834 176.210373 57.876048 C176.911484 67.237849 176.044892 76.537035 176.764115 85.835673 C177.241806 92.011752 177.972718 97.980898 181.658966 103.349276 C182.816727 105.035387 182.298096 107.802615 182.824127 110.008875 C183.614334 113.323183 184.642624 116.581042 185.582825 119.859133 C185.966706 121.197588 186.697434 122.518084 186.732315 123.860735 C186.867920 129.080553 186.590439 134.317721 186.899948 139.522662 C187.001297 141.227053 188.037842 143.442004 189.370835 144.304995 C190.237915 144.866320 192.573929 143.669146 193.975113 142.808978 C201.032349 138.476733 208.021271 134.031481 214.985245 129.549853 C217.636780 127.843462 220.213837 126.008028 222.726044 124.101260 C227.423493 120.535868 232.282791 117.982340 238.546204 119.472872 C240.516236 119.941698 243.022446 118.590014 244.816941 119.281558 C249.869294 121.228564 247.126145 126.526537 248.433258 130.151644 C248.937348 131.549593 245.570694 134.493288 243.751099 136.540270 C241.573151 138.990374 239.520676 141.847796 236.781510 143.443011 C230.658432 147.008852 224.143112 149.901171 217.537552 153.317828 M245.287552 190.567828 C244.371018 189.567828 243.460251 188.562182 242.511216 187.593981 C242.481522 187.563708 242.056977 187.920458 241.816513 188.096789 C242.640198 188.920474 243.463867 189.744143 245.287552 190.567828 z"/><path class="selected"  fill="#ffffff" opacity="1.000000" stroke="none" 
 	d="
M131.037552 174.317828 C138.479767 179.749941 139.897934 188.404467 142.978623 195.717318 C146.016770 202.929202 145.010605 211.572344 142.418534 218.838458 C140.673966 223.728869 135.863282 227.885348 131.655381 231.466769 C120.878815 240.638934 108.216187 238.125414 95.847870 236.080386 C85.691544 234.401110 80.798012 227.204272 77.736321 218.142779 C76.657219 214.948992 74.680916 212.047778 73.705498 208.833559 C73.132065 206.943957 73.603440 204.689776 73.809769 202.620013 C74.413979 196.559084 73.883919 190.004534 76.094055 184.578524 C78.994286 177.458376 84.053948 171.210040 88.296631 164.659136 C88.639344 164.129977 90.479180 163.827303 90.557663 163.977236 C93.759926 170.094454 97.286621 164.409502 99.073235 163.333025 C105.542206 159.435320 119.102326 162.188540 123.826477 167.522677 C125.929322 169.897051 128.454224 171.897601 131.037552 174.317828 M118.287552 193.567828 C113.898583 190.512194 109.620995 187.272051 105.052330 184.514086 C103.693329 183.693682 100.374916 183.516787 99.911621 184.261965 C97.819809 187.626452 95.747780 191.292757 94.993721 195.111971 C94.337158 198.437350 95.245575 202.147814 95.827210 205.627139 C97.481819 215.525042 109.348069 217.826586 115.948609 213.969485 C122.653450 210.051424 125.794968 202.884860 118.287552 193.567828 z"/></svg>