<?xml version="1.0" encoding="UTF-8" standalone="no"?>
<svg
   version="1.1"
   id="Contours"
   x="0px"
   y="0px"
   width="294.104340px"
   height="294.104340px"
   viewBox="0.000000 0.000000 294.104340 277.569672"
   enable-background="new 0 0 294.104340 294.104340"
   xml:space="preserve"
   stroke="black"
   fill="none"
   stroke-linecap="round"
   stroke-linejoin="round"
   sodipodi:docname="logocopy.svg"
   inkscape:version="1.2 (dc2aedaf03, 2022-05-15)"
   xmlns:inkscape="http://www.inkscape.org/namespaces/inkscape"
   xmlns:sodipodi="http://sodipodi.sourceforge.net/DTD/sodipodi-0.dtd"
   xmlns:xlink="http://www.w3.org/1999/xlink"
   xmlns="http://www.w3.org/2000/svg"
   xmlns:svg="http://www.w3.org/2000/svg"><defs
     id="defs72"><linearGradient
       inkscape:collect="always"
       id="linearGradient1013"><stop
         style="stop-color:#008080;stop-opacity:1"
         offset="0"
         id="stop1009" /><stop
         style="stop-color:#800080;stop-opacity:1"
         offset="1"
         id="stop1011" /></linearGradient><linearGradient
       inkscape:collect="always"
       id="linearGradient1007"><stop
         style="stop-color:#008080;stop-opacity:1"
         offset="0"
         id="stop1003" /><stop
         style="stop-color:#800080;stop-opacity:1"
         offset="1"
         id="stop1005" /></linearGradient><linearGradient
       inkscape:collect="always"
       id="linearGradient931"><stop
         style="stop-color:#008080;stop-opacity:1"
         offset="0"
         id="stop927" /><stop
         style="stop-color:#800080;stop-opacity:1"
         offset="1"
         id="stop929" /></linearGradient><linearGradient
       inkscape:collect="always"
       xlink:href="#linearGradient931"
       id="linearGradient933"
       x1="322.31778"
       y1="71.44339"
       x2="548.58307"
       y2="294.2923"
       gradientUnits="userSpaceOnUse"
       gradientTransform="translate(-278.46433,-46.293974)" /><linearGradient
       inkscape:collect="always"
       xlink:href="#linearGradient1013"
       id="linearGradient935"
       x1="322.31778"
       y1="71.44339"
       x2="548.58307"
       y2="294.2923"
       gradientUnits="userSpaceOnUse"
       gradientTransform="translate(-278.46433,-46.293974)" /><linearGradient
       inkscape:collect="always"
       xlink:href="#linearGradient1007"
       id="linearGradient937"
       x1="322.31778"
       y1="71.44339"
       x2="548.58307"
       y2="294.2923"
       gradientUnits="userSpaceOnUse"
       gradientTransform="translate(-278.46433,-46.293974)" /></defs><sodipodi:namedview
     id="namedview70"
     pagecolor="#ffffff"
     bordercolor="#000000"
     borderopacity="0.25"
     inkscape:showpageshadow="2"
     inkscape:pageopacity="0.0"
     inkscape:pagecheckerboard="0"
     inkscape:deskcolor="#d1d1d1"
     showgrid="false"
     inkscape:zoom="2.2696326"
     inkscape:cx="260.83517"
     inkscape:cy="150.24458"
     inkscape:window-width="1680"
     inkscape:window-height="987"
     inkscape:window-x="0"
     inkscape:window-y="0"
     inkscape:window-maximized="1"
     inkscape:current-layer="Contours" /><path
     class="selected"
     fill="#ffffff"
     opacity="1"
     stroke="none"
     d="m 243.99236,36.383626 c 0,0.33329 -0.0632,0.681034 0.009,0.997753 1.89713,8.293522 1.9216,13.477386 -2.9738,22.703647 -2.59949,4.89919 -4.13003,10.52824 -7.42346,14.85276 -3.60587,4.7348 -8.69698,8.33567 -13.12081,12.45223 -1.20086,1.11745 -2.32943,2.31261 -3.49116,3.47211 1.78546,0.50717 3.70502,1.71555 5.33394,1.40407 8.53383,-1.63178 16.39044,-4.8186 23.07181,-10.68198 3.0646,-2.68938 6.47462,-5.12629 10.07023,-7.03198 4.06101,-2.15234 4.26489,-5.85194 3.35172,-8.97647 -1.92746,-6.59477 -2.5889,-13.033811 -1.97141,-19.903593 0.64398,-7.164985 0.55442,-14.466678 -0.0371,-21.640781 -0.27765,-3.367583 -2.2167,-6.72098 -3.88623,-9.820439 -2.16563,-4.02049 0.15979,-5.7017548 3.09259,-7.3809098 0.72312,-0.414016 1.31971,-1.048993 1.97443,-1.5824 -0.80951,-0.288008 -1.61304,-0.594591 -2.43088,-0.856603 -0.44482,-0.14251 -0.91385,-0.209311 -1.37198,-0.310257 0.33991,-0.471341 0.58915,-1.064731 1.03382,-1.395066 4.29144,-3.18815196 15.905,-2.10894596 19.32934,1.79289 0.28012,0.319167 0.29929,0.867349 0.4397,1.309125 -0.66422,0.03443 -1.38403,0.252607 -1.98291,0.07127 -2.50974,-0.759942 -4.96832,-1.690874 -7.48505,-2.42374 -0.40866,-0.119004 -1.08374,0.371819 -1.48797,0.742022 -0.11069,0.101376 0.4523,1.161793 0.47473,1.153535 4.61301,-1.698118 5.41946,3.591431 8.53601,4.634508 3.84213,1.2859288 6.16849,3.4525338 3.95364,7.8512188 -0.0669,0.132938 -0.0651,0.356026 -3.9e-4,0.491844 5.58236,11.717318 1.37536,24.444159 3.70181,36.578756 1.11279,5.80443 -0.96451,12.14865 -0.56366,18.17972 0.49283,7.41514 2.0564,14.75983 3.19098,22.12976 0.0663,0.43041 0.64603,0.8221 0.63135,1.21863 -0.23874,6.440634 -0.90845,12.890984 -0.70447,19.314474 0.17496,5.50853 1.32678,10.98683 2.0643,16.47612 0.1896,1.41118 0.68796,2.823 0.63245,4.21814 -0.3664,9.2102 0.79635,17.96628 4.76049,26.55428 1.56546,3.39154 0.18927,8.10581 0.32065,12.21241 0.0495,1.54705 0.3392,3.17513 0.92252,4.6014 2.89847,7.08697 2.54345,14.49905 1.92654,21.81593 -0.43756,5.18964 -3.34326,10.53943 -2.5249,15.37383 1.03216,6.09747 -1.97101,10.90902 -2.4465,16.39578 -0.93897,10.83447 -6.7916,18.64444 -14.85453,25.87427 -7.07229,6.34155 -15.68005,7.28549 -23.79672,9.95346 -4.96318,1.63141 -10.63545,0.98687 -15.75409,2.289 -10.22494,2.60113 -20.56474,1.72842 -30.86763,1.81939 -5.91488,0.0522 -11.84949,-1.01849 -17.75101,-0.82919 -8.40213,0.26956 -16.77412,1.38916 -25.17581,1.81091 -2.79829,0.14048 -5.64137,-1.03634 -8.47612,-1.1043 -5.2502,-0.12592 -10.50901,0.15509 -15.76483,0.2033 -4.559,0.0418 -9.11899,-0.0326 -13.67824,-0.005 -11.51997,0.0693 -23.065798,-0.27503 -34.550948,0.401 -8.36009,0.49203 -16.63224,2.40161 -24.95929,3.56717 -3.50608,0.49075 -7.13918,1.35199 -10.56432,0.90182 -10.02086,-1.31696 -20.06049,-2.79248 -29.90768,-5.02298 -6.49536,-1.47122 -11.47471,-12.05008 -10.38119,-18.91968 0.48181,-3.02673 -0.37909,-6.24603 -0.41219,-9.38018 -0.078,-7.38869 0.44506,-14.81722 -0.15541,-22.15761 -0.61745,-7.54789 -2.3810396,-14.99593 -3.4473496,-22.51541 -0.66225,-4.67017 -0.84217,-9.4076 -1.46066,-14.08547 -0.47363,-3.58221 -1.58906,-7.09428 -1.88393,-10.68152 -0.33588,-4.08616 0.0474,-8.22589 -0.10833,-12.33375 -0.20978,-5.53253 -0.90705,-11.05741 -0.89628,-16.58458 0.0118,-6.02841 0.79558,-12.05367 0.85597,-18.0842 0.0403,-4.02429 -1.00635,-8.07234 -0.84073,-12.07977 0.31303,-7.57435 -0.27397,-14.90032 -1.80009,-22.402264 -1.1317,-5.56311 0.39675,-11.66268 0.70696,-17.52504 0.35419,-6.69326 1.02494,-13.39575 0.88715,-20.0804 -0.10075,-4.887667 -0.70053,-9.930311 -2.11215,-14.590593 -2.76628,-9.132511 -1.11527,-18.255749 -0.57416,-27.323263 0.25223,-4.226756 4.63666,-6.3324638 8.4552,-6.9277468 3.2037796,-0.499447 7.1813596,-0.347866 9.8754396,1.177392 4.35639,2.4663728 7.66324,0.611034 11.36745,-0.729932 0.8746,-0.316615 1.84077,-0.640811 2.73606,-0.574314 1.13859,0.08457 2.2479,0.563401 3.36984,0.872252 -0.90633,0.357814 -1.85227,0.641046 -2.7074,1.095255 -0.79178,0.420567 -1.48641,1.0240418 -2.22382,1.5469688 0.63561,0.477075 1.42972,1.485952 1.8829,1.350895 6.11685,-1.822953 11.37281,2.992096 17.36973,2.115556 4.91477,-0.718368 10.08313,-2.276134 14.77079,-1.42749 9.1969,1.66499 18.62332,-1.959053 27.73686,2.195425 4.0242,1.834461 9.038148,1.445053 13.573748,2.232391 2.30111,0.399453 6.30901,-0.361339 3.75555,4.410593 -0.22043,0.411923 0.3982,1.450913 0.87949,1.959992 0.16028,0.169535 1.33028,-0.238827 1.66354,-0.67177 1.90145,-2.470177 3.59832,-1.175045 4.88784,0.421627 4.90253,6.070228 9.6693,12.250408 14.46607,18.405651 3.4153,4.382561 7.26848,8.516815 10.03964,13.277921 2.07747,3.56927 5.95131,6.9477 3.96516,12.04958 -0.13792,0.35428 0.569,1.05259 0.90787,1.57482 1.85266,2.85516 2.97473,5.43729 2.36858,9.38073 -0.56438,3.67158 1.74812,7.76137 2.67201,11.69574 0.4693,1.99844 1.11588,4.11389 0.87877,6.07951 -0.2981,2.4712 -0.27167,4.557154 0.99605,6.834814 0.6616,1.1887 0.3661,3.09772 0.0732,4.59745 -1.23052,6.30022 -1.89881,12.83787 -4.1104,18.79178 -4.33459,11.66933 -10.64009,21.98246 -24.08104,25.14849 -8.66088,2.04007 -17.31166,4.13676 -26.01726,5.96917 -7.851348,1.65261 -15.839038,2.69405 -23.638388,4.54517 -5.84074,1.38625 -11.75595,3.0837 -17.05931,5.78056 -1.9387,0.98584 -2.39147,5.20163 -3.18003,8.03899 -0.57885,2.08279 -0.85657,4.32375 -0.82904,6.48862 0.19616,15.42926 0.90257,30.82034 3.9509,46.01045 1.56172,7.7822 -5.59277,17.10008 -12.79012,17.25066 -5.45233,0.11406 -7.77795,-3.36026 -7.96511,-7.53798 -0.30209,-6.74294 -4.21541,-13.48783 -0.3377,-20.3693 0.44464,-0.78906 -0.12729,-2.70599 -0.86884,-3.5054 -2.31548,-2.49612 -1.41008,-5.13757 -1.30072,-8.01748 0.32041,-8.4376 -0.0164,-16.89795 0.12573,-25.34566 0.0497,-2.9523 1.03434,-5.88829 1.08967,-8.84116 0.15714,-8.38643 -0.0721,-16.78027 0.0954,-25.16629 0.13379,-6.69835 1.28827,-13.43736 0.80866,-20.07298 -0.77003,-10.65362 -2.5933,-21.2281 -3.77361,-31.858014 -0.20014,-1.80242 0.91784,-3.72439 0.8644,-5.57488 -0.17106,-5.92297 -0.71751,-11.83478 -0.906,-17.75767 -0.16256,-5.10846 0.79376,-10.39658 -0.21628,-15.30225 -1.77623,-8.626954 -4.52841,-17.072675 -7.3636,-25.42743 -0.2481,-0.731102 -4.14465,-0.380726 -6.31307,-0.176739 -0.45588,0.04289 -1.1553,1.686665 -1.08134,2.535145 0.90873,10.425644 1.95402,20.839314 2.92372,31.259814 0.123,1.32172 -0.0403,2.66762 0.0266,3.99742 0.31133,6.19554 0.73316,12.38639 0.97304,18.58444 0.39665,10.24859 -0.0706,20.605514 1.32359,30.710194 0.73848,5.35242 -0.19425,10.27678 -0.14419,15.3816 0.0889,9.06161 1.31648,18.10601 1.78428,27.17222 0.28888,5.59867 -0.40541,11.2708 0.15653,16.82753 0.94288,9.32361 2.82337,18.55287 3.75007,27.87743 0.57918,5.82776 -0.0246,11.76318 0.19004,17.6398 0.22733,6.22296 0.26845,12.52615 1.34099,18.62727 1.5268,8.68523 6.82753,11.33284 16.01353,12.49245 12.3824,1.56305 23.72111,-2.9155 35.56254,-3.95425 9.40401,-0.82494 18.572878,-3.37436 28.499978,-1.72341 12.85964,2.13866 26.1338,1.95333 39.2421,2.32802 4.03428,0.1153 8.12584,-1.86276 12.16353,-1.76299 15.39553,0.38039 30.77555,1.36547 46.17049,1.80575 5.51379,0.15765 11.12149,-0.15897 16.56523,-1.02248 8.03732,-1.27492 16.00876,-3.05412 23.93176,-4.94 12.28476,-2.92405 17.3848,-12.43756 19.30271,-23.51963 2.49988,-14.44488 1.42502,-28.89808 -1.65326,-43.34774 -1.97431,-9.2674 -2.38068,-18.89536 -3.13129,-28.39003 -0.88586,-11.20502 -0.82098,-22.51546 -2.29614,-33.6305 -0.70688,-5.32641 -0.64383,-10.52191 -0.75287,-15.787654 -0.0172,-0.83286 0.33347,-1.92045 -0.0674,-2.45043 -1.06366,-1.40616 -2.44559,-2.57162 -3.70087,-3.83284 -0.74469,0.88136 -1.86761,1.64772 -2.17587,2.66174 -3.24741,10.681934 -12.86749,12.893284 -21.58716,15.072404 -7.73935,1.93413 -16.0849,2.4214 -24.0911,2.04018 -8.41163,-0.40053 -15.4065,-4.97792 -21.41479,-11.01772 -9.58856,-9.638874 -7.38596,-20.876924 -4.9655,-32.295514 1.17639,-5.54976 1.54326,-11.30921 3.13162,-16.722874 1.59416,-5.433357 4.17613,-10.588039 6.4735,-15.799473 1.24408,-2.822105 2.33835,-5.898983 4.28901,-8.188987 9.72023,-11.411004 22.26688,-13.005267 35.92266,-9.353674 6.25555,1.672752 12.27493,10.832014 12.7585,15.783121 0.0199,0.204101 -1.35169,0.544109 -2.325,0.570797 -1.25,-1.75 -2.25,-3.25 -3.25,-5 -2.29796,-2.547951 -4.55551,-4.889351 -6.9339,-7.1008 -0.39325,-0.365644 -1.31523,-0.162638 -1.99287,-0.222425 0.35896,0.524408 0.61773,1.175312 1.09356,1.552145 2.58149,2.044384 5.21657,4.021083 7.83321,6.271083 1,1.75 2,3.25 3,4.749997 m -142,3.5 C 94.982212,34.33875 86.443762,34.018018 78.184352,33.557965 c -5.00254,-0.278641 -10.20877,0.741718 -15.10817,2.010128 -2.29095,0.593105 -4.81434,2.775639 -5.91077,4.915093 -1.6628,3.244613 -2.39214,7.036144 -3.11762,10.675159 -0.89895,4.509071 -2.69255,9.407321 -1.70935,13.573321 1.10607,4.6866 2.1734,8.99922 1.82113,13.93099 -0.39511,5.53151 0.59408,11.15168 0.79622,16.73996 0.11695,3.23297 -0.46016,6.704864 -0.35111,9.657084 0.25678,6.95228 3.17615,13.76126 4.1226,20.74952 0.58747,4.3377 1.01528,8.94974 -0.61715,13.40336 -0.37844,1.03245 0.37686,2.95231 1.24907,3.82724 0.74426,0.74659 2.50838,1.01417 3.64408,0.74519 7.10811,-1.68361 14.12854,-3.74454 21.25072,-5.35991 9.4673,-2.14725 19.459898,-0.91837 28.601198,-5.84171 6.3137,-3.40043 12.98093,-6.50808 16.62524,-12.52094 5.06239,-8.35264 7.06489,-18.35977 5.17317,-27.769034 -1.91826,-9.54111 -5.95362,-18.8254 -10.17974,-27.68911 -4.81302,-10.09528 -12.25877,-18.320522 -22.48151,-24.72068 m 125,3 c -3.3535,-4.219914 -8.38817,-3.635105 -11.32785,-1.267861 -7.226,5.818878 -9.6597,14.684491 -11.55438,23.456751 -0.19936,0.92306 1.36462,3.20788 1.88902,3.14038 2.58005,-0.33215 5.79369,-0.49138 7.49135,-2.08678 6.49017,-6.09937 12.73169,-12.578783 13.50186,-23.24249 M 3.9923624,14.883624 c 0.76879,-0.435457 1.58173,-0.813246 2.27661,-1.345244 0.18321,-0.14026 0.002,-0.75688 -0.0123,-1.154754 -0.75477,0.5 -1.50953,1 -2.2643,2.499998 z"
     id="path63"
     style="fill:url(#linearGradient933);fill-opacity:1" /><path
     class="selected"
     fill="#ffffff"
     opacity="1"
     stroke="none"
     d="m 217.74236,154.13363 c -6.27429,3.84058 -6.15942,5.44714 -1.85584,8.57047 7.39472,5.36666 14.89438,10.60078 22.51815,15.63591 5.75981,3.80409 9.99679,8.66891 13.0659,14.86959 1.79825,3.63315 4.26257,7.13637 7.19223,9.88173 0.82275,0.77101 3.39294,-0.40649 3.4469,2.67856 0.0333,1.90143 1.72974,3.7681 1.78403,5.67584 0.14856,5.21959 -8.78678,11.62128 -13.6669,9.49668 -4.95159,-2.1557 -9.96643,-4.71064 -14.06536,-8.14945 -5.77137,-4.84193 -10.38138,-10.75377 -14.5029,-17.32731 -3.33719,-5.32254 -9.51454,-8.93865 -14.66555,-13.01677 -2.40143,-1.90123 -5.22498,-3.44338 -8.08896,-4.54662 -4.62682,-1.78235 -5.94046,0.0171 -6.07521,4.90175 -0.16564,6.00412 -1.52317,12.11061 1.24464,17.72008 3.26529,6.6177 1.40434,12.91514 -0.0567,19.38673 -1.37392,6.08569 -6.59096,10.02702 -12.85201,9.47281 -4.10861,-0.36368 -7.77948,-6.1601 -8.25235,-11.6268 -0.93896,-10.85475 -2.47758,-21.65675 -3.48713,-32.50671 -0.47817,-5.13901 0.0958,-10.38628 -0.51094,-15.50097 -1.63864,-13.81254 0.41221,-27.86952 -3.7015,-41.58604 -1.9508,-6.50473 -1.35304,-13.74022 -2.26255,-20.59786 -1.85976,-14.022134 -3.92656,-28.017244 -5.97225,-42.014094 -0.91553,-6.26417 -1.63304,-12.590237 -3.10367,-18.729328 -1.06655,-4.452218 -3.23024,-8.640648 -4.89288,-12.951264 -2.291,-5.939728 -0.93367,-11.424284 4.1274,-14.70824 2.84236,-1.844304 7.52653,-2.302658 10.873,-1.432404 2.43423,0.633032 4.06241,4.443655 5.97481,6.896166 0.21316,0.273371 -0.0655,0.930227 -0.11605,1.409235 -0.47136,-0.239159 -1.00245,-0.405872 -1.40046,-0.734003 -0.63997,-0.527617 -1.09566,-1.430521 -1.80495,-1.684921 -0.94426,-0.338677 -2.05698,-0.207606 -3.09734,-0.278334 0.22548,0.92251 0.24501,1.968042 0.71047,2.747188 2.63984,4.418919 6.4445,8.46521 7.83474,13.227437 1.83014,6.269126 3.81762,12.509944 4.33205,19.379158 0.70111,9.3618 -0.16548,18.66099 0.55374,27.95963 0.47769,6.17607 1.20861,12.14522 4.89485,17.513604 1.15776,1.68611 0.63913,4.45334 1.16516,6.6596 0.79021,3.31431 1.8185,6.57216 2.7587,9.85026 0.38388,1.33845 1.11461,2.65895 1.14949,4.0016 0.13561,5.21982 -0.14187,10.45698 0.16764,15.66192 0.10134,1.7044 1.13789,3.91935 2.47088,4.78234 0.86708,0.56132 3.2031,-0.63585 4.60428,-1.49602 7.05724,-4.33224 14.04616,-8.7775 21.01013,-13.25912 2.65154,-1.7064 5.22859,-3.54183 7.7408,-5.4486 4.69745,-3.56539 9.55675,-6.11892 15.82016,-4.62839 1.97003,0.46883 4.47624,-0.88285 6.27074,-0.19131 5.05235,1.94701 2.3092,7.24498 3.61632,10.87009 0.50409,1.39795 -2.86257,4.34164 -4.68216,6.38862 -2.17795,2.45011 -4.23043,5.30753 -6.96959,6.90274 -6.12308,3.56584 -12.6384,6.45816 -19.24396,9.87482 m 27.75,37.25 c -0.91653,-1 -1.8273,-2.00565 -2.77634,-2.97385 -0.0297,-0.0303 -0.45424,0.32648 -0.6947,0.50281 0.82369,0.82369 1.64735,1.64736 3.47104,2.47104 z"
     id="path65"
     style="fill:url(#linearGradient935);fill-opacity:1" /><path
     class="selected"
     fill="#ffffff"
     opacity="1"
     stroke="none"
     d="m 131.24236,175.13363 c 7.44221,5.43211 8.86038,14.08664 11.94107,21.39949 3.03815,7.21188 2.03198,15.85503 -0.56009,23.12114 -1.74457,4.89041 -6.55525,9.04689 -10.76315,12.62831 -10.77657,9.17217 -23.4392,6.65865 -35.807508,4.61362 -10.15633,-1.67928 -15.04986,-8.87612 -18.11155,-17.93761 -1.0791,-3.19379 -3.05541,-6.095 -4.03082,-9.30922 -0.57344,-1.8896 -0.10206,-4.14378 0.10427,-6.21354 0.60421,-6.06093 0.0742,-12.61548 2.28428,-18.04149 2.90023,-7.12015 7.9599,-13.36849 12.20258,-19.91939 0.34271,-0.52916 2.18255,-0.83183 2.26103,-0.6819 3.20226,6.11722 6.72896,0.43226 8.51557,-0.64421 6.468968,-3.89771 20.029088,-1.14449 24.753238,4.18965 2.10285,2.37437 4.62775,4.37492 7.21108,6.79515 m -12.75,19.25 c -4.38897,-3.05563 -8.66656,-6.29578 -13.23522,-9.05374 -1.359,-0.82041 -4.67742,-0.9973 -5.14071,-0.25212 -2.091808,3.36448 -4.163838,7.03079 -4.917898,10.85 -0.65656,3.32538 0.25185,7.03585 0.83349,10.51517 1.65461,9.8979 13.520858,12.19945 20.121398,8.34235 6.70484,-3.91806 9.84636,-11.08463 2.33894,-20.40166 z"
     id="path67"
     style="fill:url(#linearGradient937);fill-opacity:1" /></svg>
